<svg width="177" height="252" viewBox="0 0 177 252" fill="none" xmlns="http://www.w3.org/2000/svg">
<path fill-rule="evenodd" clip-rule="evenodd" d="M0.975006 248V151.159C0.975006 150.808 1.06239 150.462 1.22928 150.154L78.6945 6.91512C83.0885 -1.20974 94.7489 -1.204 99.1349 6.92516L176.414 150.155C176.58 150.463 176.667 150.807 176.667 151.157V248C176.667 250.209 174.876 252 172.667 252H168.344C166.134 252 164.344 250.209 164.344 248V155.756L95.1966 114.905V248C95.1966 250.209 93.4058 252 91.1966 252H4.975C2.76586 252 0.975006 250.209 0.975006 248ZM95.128 25.7204V101.256C95.128 101.256 96.0289 101.371 96.58 101.547C97.1736 101.735 98.032 102.207 98.032 102.207L155.61 136.157L95.128 25.7204ZM143.44 234.84C143.44 242.276 138.358 248.304 132.088 248.304C125.819 248.304 120.736 242.276 120.736 234.84C120.736 227.404 125.819 221.376 132.088 221.376C138.358 221.376 143.44 227.404 143.44 234.84ZM150.338 160.656C147.112 160.656 144.496 163.272 144.496 166.498V207.455C144.496 210.682 147.112 213.298 150.338 213.298C153.565 213.298 156.181 210.682 156.181 207.455V166.498C156.181 163.272 153.565 160.656 150.338 160.656ZM126.016 155.384C126.016 152.172 128.62 149.568 131.832 149.568C135.044 149.568 137.648 152.172 137.648 155.384V197.276C137.648 200.488 135.044 203.091 131.832 203.091C128.62 203.091 126.016 200.488 126.016 197.276V155.384ZM113.774 140.328C110.513 140.328 107.869 142.972 107.869 146.234V188.3C107.869 191.561 110.513 194.205 113.774 194.205C117.036 194.205 119.68 191.561 119.68 188.3V146.234C119.68 142.972 117.036 140.328 113.774 140.328Z" fill="#CA4238"/>
</svg>
